# File created by Blade
# Date/Time:  Tue Jan 27 17:27:44 2015
#---------------------------------------------------------
:version 1.10
:name HOM
:units
  mass 1.0
  length 1.000000
  angle deg
:documentation
     Acclaim Skeleton File
:root
   axis xyz
   order TX TY TZ RX RY RZ
   position 0.000000 0.000000 0.000000
   orientation 0 0 0
:bonedata
   begin
      id 1
      name Spine_dum
      direction 0.000000 1.000000 0.000000
      length 7.539951
      axis 0.0 0.0 0.0 xyz
   end
   begin
      id 2
      name LeftUpLeg_dum
      direction 1.000000 0.000000 0.000000
      length 3.345476
      axis 0.0 0.0 0.0 xyz
   end
   begin
      id 3
      name RightUpLeg_dum
      direction -1.000000 0.000000 0.000000
      length 3.345476
      axis 0.0 0.0 0.0 xyz
   end
   begin
      id 4
      name Spine
      direction 0.000000 1.000000 0.000000
      length 0.000000
      axis 0.0 0.0 0.0 xyz
      dof rx ry rz
   end
   begin
      id 5
      name Spine_dum1
      direction 0.000000 1.000000 0.000000
      length 15.093809
      axis 0.0 0.0 0.0 xyz
   end
   begin
      id 6
      name Spine_dum2
      direction 0.000000 1.000000 0.000000
      length 9.738928
      axis 0.0 0.0 0.0 xyz
   end
   begin
      id 7
      name Spine_dum3
      direction 0.000000 1.000000 0.000000
      length 9.738928
      axis 0.0 0.0 0.0 xyz
   end
   begin
      id 8
      name Head
      direction 0.000000 1.000000 0.000000
      length 4.527550
      axis 0.0 0.0 0.0 xyz
      dof rx ry rz
   end
   begin
      id 9
      name LeftShoulder
      direction 1.000000 0.000000 0.000000
      length 7.084015
      axis 0.0 0.0 -90.0 xyz
      dof rx ry rz
   end
   begin
      id 10
      name LeftArm
      direction 1.000000 0.000000 0.000000
      length 10.259319
      axis 0.0 0.0 -90.0 xyz
      dof rx ry rz
   end
   begin
      id 11
      name LeftForeArm
      direction 1.000000 0.000000 0.000000
      length 9.896984
      axis 0.0 0.0 -90.0 xyz
      dof ry rz rx
   end
   begin
      id 12
      name LeftHand
      direction 0.000000 0.000000 0.000000
      length 0.000000
      axis 0.0 0.0 -90.0 xyz
      dof rx ry rz
   end
   begin
      id 13
      name LeftHand_dum1
      direction 0.000000 0.000000 0.000000
      length 0.000000
      axis 0.0 0.0 -90.0 xyz
   end
   begin
      id 14
      name LeftHand_dum2
      direction 1.000000 0.000000 0.000000
      length 3.937000
      axis 0.0 0.0 -90.0 xyz
   end
   begin
      id 15
      name LeftHandThumb1
      direction 0.000000 0.000000 1.000000
      length 3.937000
      axis 0.0 0.0 -90.0 xyz
      dof rx rz ry
   end
   begin
      id 16
      name RightShoulder
      direction -1.000000 0.000000 0.000000
      length 7.084015
      axis 0.0 0.0 90.0 xyz
      dof rx ry rz
   end
   begin
      id 17
      name RightArm
      direction -1.000000 0.000000 0.000000
      length 10.259319
      axis 0.0 0.0 90.0 xyz
      dof rx ry rz
   end
   begin
      id 18
      name RightForeArm
      direction -1.000000 0.000000 0.000000
      length 9.896984
      axis 0.0 0.0 90.0 xyz
      dof ry rz rx
   end
   begin
      id 19
      name RightHand
      direction 0.000000 0.000000 0.000000
      length 0.000000
      axis 0.0 0.0 90.0 xyz
      dof rx ry rz
   end
   begin
      id 20
      name RightHand_dum1
      direction 0.000000 0.000000 0.000000
      length 0.000000
      axis 0.0 0.0 90.0 xyz
   end
   begin
      id 21
      name RightHand_dum2
      direction -1.000000 0.000000 0.000000
      length 3.937000
      axis 0.0 0.0 90.0 xyz
   end
   begin
      id 22
      name RightHandThumb1
      direction 0.000000 0.000000 1.000000
      length 3.937000
      axis 0.0 0.0 90.0 xyz
      dof rx rz ry
   end
   begin
      id 23
      name LeftUpLeg
      direction 0.000000 -1.000000 0.000000
      length 19.114733
      axis 0.0 0.0 0.0 xyz
      dof rx ry rz
   end
   begin
      id 24
      name LeftLeg
      direction 0.000000 -1.000000 0.000000
      length 16.045604
      axis 0.0 0.0 0.0 xyz
      dof rx ry rz
   end
   begin
      id 25
      name LeftFoot
      direction 0.000000 -0.258819 0.965926
      length 5.543155
      axis 15.0 0.0 0.0 xyz
      dof rx ry rz
   end
   begin
      id 26
      name LeftToeBase
      direction 0.000000 0.000000 1.000000
      length 2.952750
      axis 0.0 0.0 0.0 xyz
      dof rx ry rz
   end
   begin
      id 27
      name RightUpLeg
      direction 0.000000 -1.000000 0.000000
      length 19.114733
      axis 0.0 0.0 0.0 xyz
      dof rx ry rz
   end
   begin
      id 28
      name RightLeg
      direction 0.000000 -1.000000 0.000000
      length 16.045604
      axis 0.0 0.0 0.0 xyz
      dof rx ry rz
   end
   begin
      id 29
      name RightFoot
      direction 0.000000 -0.258819 0.965926
      length 5.543155
      axis 15.0 0.0 0.0 xyz
      dof rx ry rz
   end
   begin
      id 30
      name RightToeBase
      direction 0.000000 0.000000 1.000000
      length 2.952750
      axis 0.0 0.0 0.0 xyz
      dof rx ry rz
   end
:hierarchy
   begin
      root Spine_dum LeftUpLeg_dum RightUpLeg_dum
      Spine_dum Spine
      LeftUpLeg_dum LeftUpLeg
      RightUpLeg_dum RightUpLeg
      Spine Spine_dum1 Spine_dum2 Spine_dum3
      Spine_dum1 Head
      Spine_dum2 LeftShoulder
      Spine_dum3 RightShoulder
      LeftShoulder LeftArm
      LeftArm LeftForeArm
      LeftForeArm LeftHand
      LeftHand LeftHand_dum1 LeftHand_dum2
      LeftHand_dum1 LeftHandThumb1
      RightShoulder RightArm
      RightArm RightForeArm
      RightForeArm RightHand
      RightHand RightHand_dum1 RightHand_dum2
      RightHand_dum1 RightHandThumb1
      LeftUpLeg LeftLeg
      LeftLeg LeftFoot
      LeftFoot LeftToeBase
      RightUpLeg RightLeg
      RightLeg RightFoot
      RightFoot RightToeBase
   end

# File created by Blade
# Date/Time:  Tue Jan 27 17:27:32 2015
# Frame Rate: 120.000 fps
#------------------------------------------------------
:FULLY-SPECIFIED
:DEGREES
1144
root 3.871346 37.112353 0.348287 4.558004 28.847402 -2.980229
Spine 0.592030 8.894646 1.550621
Head 9.536413 -4.144780 -0.920486
LeftShoulder -4.437792 -9.347372 5.705512
LeftArm 1.262437 -15.591225 -54.113192
LeftForeArm 8.855113 0.000000 106.568233
LeftHand -15.578969 -0.000000 36.128769
LeftHandThumb1 -26.253704 0.000000 33.147579
RightShoulder -4.380332 -20.709986 -0.004593
RightArm 14.417620 -19.673611 60.557458
RightForeArm 187.607928 -0.000000 23.133520
RightHand -0.161551 -0.000000 2.748725
RightHandThumb1 -24.326973 -0.000000 -32.862282
LeftUpLeg -8.334730 -7.594593 1.243048
LeftLeg 9.224841 -0.000000 -0.000000
LeftFoot -11.261552 -14.552418 -11.710592
LeftToeBase 13.131783 -0.000000 -0.000000
RightUpLeg -40.697017 6.349520 -11.400203
RightLeg 101.243521 -0.000000 -0.000000
RightFoot -7.013469 4.527309 3.566758
RightToeBase 0.351185 -0.000000 -0.000000
1145
root 3.881948 37.107888 0.355878 4.617139 28.884988 -2.835856
Spine 0.542056 8.801259 1.381632
Head 9.324026 -4.051929 -0.874552
LeftShoulder -4.449650 -9.360747 5.741332
LeftArm 1.232015 -15.654840 -54.201776
LeftForeArm 8.913736 -0.000000 106.567546
LeftHand -15.468512 -0.000000 35.932493
LeftHandThumb1 -26.253704 0.000000 33.147579
RightShoulder -4.435971 -20.685283 0.028401
RightArm 14.451135 -19.602577 60.501705
RightForeArm 187.900795 -0.000000 23.228474
RightHand -0.130104 0.000000 2.902403
RightHandThumb1 -24.326973 -0.000000 -32.862282
LeftUpLeg -8.235118 -7.423667 1.116865
LeftLeg 9.058704 -0.000000 -0.000000
LeftFoot -11.105849 -14.859482 -12.028422
LeftToeBase 13.514374 -0.000000 -0.000000
RightUpLeg -40.340653 6.251914 -11.229424
RightLeg 100.248695 -0.000000 -0.000000
RightFoot -7.709144 4.392275 3.585940
RightToeBase -0.094446 -0.000000 0.000000
1146
root 3.891193 37.104471 0.362122 4.666012 28.915487 -2.727356
Spine 0.502039 8.700377 1.271198
Head 9.113908 -4.004643 -0.944519
LeftShoulder -4.463232 -9.362920 5.731439
LeftArm 1.220444 -15.728586 -54.250840
LeftForeArm 8.924077 0.000000 106.570860
LeftHand -15.467127 -0.000000 36.044784
LeftHandThumb1 -26.253704 0.000000 33.147579
RightShoulder -4.467624 -20.640526 0.025522
RightArm 14.468348 -19.573811 60.453760
RightForeArm 188.155725 -0.000000 23.308819
RightHand -0.229126 0.000000 3.036003
RightHandThumb1 -24.326973 -0.000000 -32.862282
LeftUpLeg -8.143032 -7.260801 1.023966
LeftLeg 8.888042 -0.000000 -0.000000
LeftFoot -10.950662 -15.139848 -12.319119
LeftToeBase 13.882729 -0.000000 -0.000000
RightUpLeg -39.953694 6.157242 -11.064217
RightLeg 99.185496 -0.000000 -0.000000
RightFoot -8.493135 4.480822 3.987839
RightToeBase -0.036831 -0.000000 0.000000
1147
root 3.901688 37.099645 0.368948 4.703532 28.962081 -2.594925
Spine 0.496148 8.587066 1.141916
Head 8.903532 -3.949051 -1.032941
LeftShoulder -4.464040 -9.368523 5.729508
LeftArm 1.201118 -15.808878 -54.287802
LeftForeArm 8.948429 0.000000 106.578850
LeftHand -15.380500 -0.000000 35.914096
LeftHandThumb1 -26.253704 0.000000 33.147579
RightShoulder -4.493257 -20.600009 0.013692
RightArm 14.487387 -19.500380 60.437242
RightForeArm 188.436863 -0.000000 23.372400
RightHand -0.316144 -0.000000 3.119611
RightHandThumb1 -24.326973 -0.000000 -32.862282
LeftUpLeg -8.047579 -7.053823 0.900158
LeftLeg 8.759213 -0.000000 -0.000000
LeftFoot -10.808940 -15.420397 -12.515451
LeftToeBase 13.826085 -0.000000 -0.000000
RightUpLeg -39.550289 6.039696 -10.902524
RightLeg 98.084691 -0.000000 -0.000000
RightFoot -9.046057 4.445712 4.024365
RightToeBase -0.244260 -0.000000 0.000000
1148
root 3.913789 37.095109 0.379264 4.670143 29.048526 -2.455024
Spine 0.598949 8.444094 1.020887
Head 8.681833 -3.883659 -1.102864
LeftShoulder -4.427953 -9.404137 5.715121
LeftArm 1.160737 -15.926712 -54.317020
LeftForeArm 9.040380 -0.000000 106.601863
LeftHand -15.413986 -0.000000 35.801862
LeftHandThumb1 -26.253704 0.000000 33.147579
RightShoulder -4.514817 -20.529858 0.014911
RightArm 14.491463 -19.420563 60.419273
RightForeArm 188.726287 -0.000000 23.443838
RightHand -0.304020 -0.000000 3.322715
RightHandThumb1 -24.326973 -0.000000 -32.862282
LeftUpLeg -7.860614 -6.965802 0.769486
LeftLeg 8.601613 -0.000000 -0.000000
LeftFoot -10.653039 -15.702052 -12.850609
LeftToeBase 14.554463 -0.000000 -0.000000
RightUpLeg -39.035075 5.875907 -10.731617
RightLeg 96.931287 -0.000000 -0.000000
RightFoot -9.649511 4.408565 4.201334
RightToeBase -0.209521 -0.000000 0.000000
1149
root 3.924376 37.089674 0.389980 4.620282 29.152393 -2.331220
Spine 0.733784 8.294444 0.924422
Head 8.364955 -3.820733 -1.147133
LeftShoulder -4.417930 -9.431573 5.734037
LeftArm 1.168255 -16.018772 -54.400672
LeftForeArm 9.142041 -0.000000 106.601989
LeftHand -15.431138 -0.000000 35.673179
LeftHandThumb1 -26.253704 0.000000 33.147579
RightShoulder -4.525610 -20.461271 -0.009360
RightArm 14.501153 -19.371941 60.426997
RightForeArm 188.927232 -0.000000 23.512121
RightHand -0.310880 0.000000 3.537537
RightHandThumb1 -24.326973 -0.000000 -32.862282
LeftUpLeg -7.674380 -6.880587 0.648604
LeftLeg 8.477983 -0.000000 -0.000000
LeftFoot -10.545882 -15.910996 -12.826450
LeftToeBase 14.420033 -0.000000 -0.000000
RightUpLeg -38.496744 5.650227 -10.520882
RightLeg 95.728059 -0.000000 -0.000000
RightFoot -10.128506 4.146015 4.360282
RightToeBase -0.950606 -0.000000 0.000000
1150
root 3.933881 37.083387 0.399467 4.581642 29.259266 -2.200710
Spine 0.875588 8.158248 0.811935
Head 7.971696 -3.764224 -1.126396
LeftShoulder -4.396464 -9.471155 5.779637
LeftArm 1.190164 -16.104141 -54.530011
LeftForeArm 9.239177 -0.000000 106.606096
LeftHand -15.477754 -0.000000 35.688565
LeftHandThumb1 -26.253704 0.000000 33.147579
RightShoulder -4.554584 -20.388226 -0.008867
RightArm 14.513128 -19.287031 60.430641
RightForeArm 189.202648 -0.000000 23.553854
RightHand -0.347291 -0.000000 3.551636
RightHandThumb1 -24.326973 -0.000000 -32.862282
LeftUpLeg -7.516716 -6.725672 0.524871
LeftLeg 8.367578 -0.000000 -0.000000
LeftFoot -10.428524 -16.208358 -13.339382
LeftToeBase 15.121249 -0.000000 -0.000000
RightUpLeg -37.946525 5.467562 -10.370596
RightLeg 94.482171 -0.000000 -0.000000
RightFoot -10.756402 4.165065 4.777388
RightToeBase -0.809380 -0.000000 0.000000
1151
root 3.944202 37.076855 0.408636 4.534098 29.370558 -2.061554
Spine 1.045502 8.018621 0.703866
Head 7.599084 -3.728568 -1.174344
LeftShoulder -4.367401 -9.501665 5.803041
LeftArm 1.236058 -16.193643 -54.625657
LeftForeArm 9.267240 -0.000000 106.608877
LeftHand -15.545901 -0.000000 35.733090
LeftHandThumb1 -26.253704 0.000000 33.147579
RightShoulder -4.553206 -20.306005 -0.036022
RightArm 14.508576 -19.208265 60.469335
RightForeArm 189.374560 -0.000000 23.596104
RightHand -0.333870 -0.000000 3.714785
RightHandThumb1 -24.326973 -0.000000 -32.862282
LeftUpLeg -7.349020 -6.563389 0.387929
LeftLeg 8.276332 -0.000000 -0.000000
LeftFoot -10.315469 -16.508369 -13.649885
LeftToeBase 15.626443 -0.000000 -0.000000
RightUpLeg -37.375142 5.216789 -10.207465
RightLeg 93.201549 -0.000000 -0.000000
RightFoot -11.446493 4.028705 5.029162
RightToeBase -0.924145 -0.000000 0.000000
1152
root 3.952020 37.069978 0.415510 4.531669 29.462693 -1.922969
Spine 1.169844 7.901052 0.581689
Head 7.224644 -3.707772 -1.220468
LeftShoulder -4.344534 -9.538254 5.835316
LeftArm 1.266342 -16.287891 -54.708249
LeftForeArm 9.260822 -0.000000 106.613680
LeftHand -15.540823 -0.000000 35.627256
LeftHandThumb1 -26.253704 0.000000 33.147579
RightShoulder -4.544149 -20.245827 -0.052309
RightArm 14.508515 -19.121395 60.506537
RightForeArm 189.453768 -0.000000 23.643346
RightHand -0.347772 -0.000000 3.760151
RightHandThumb1 -24.326973 -0.000000 -32.862282
LeftUpLeg -7.232106 -6.428500 0.260394
LeftLeg 8.189323 -0.000000 -0.000000
LeftFoot -10.188573 -16.780101 -13.932680
LeftToeBase 15.960067 -0.000000 -0.000000
RightUpLeg -36.845549 4.988868 -10.064112
RightLeg 91.888270 -0.000000 -0.000000
RightFoot -12.196202 3.871326 5.352789
RightToeBase -1.063490 -0.000000 0.000000
1153
root 3.957370 37.064495 0.422878 4.519973 29.572569 -1.794802
Spine 1.306632 7.789647 0.470601
Head 6.844663 -3.677748 -1.259266
LeftShoulder -4.298409 -9.572593 5.887595
LeftArm 1.301370 -16.405896 -54.837934
LeftForeArm 9.341773 -0.000000 106.598548
LeftHand -15.507329 -0.000000 35.458244
LeftHandThumb1 -26.253704 0.000000 33.147579
RightShoulder -4.536375 -20.186278 -0.049767
RightArm 14.500899 -19.045158 60.534731
RightForeArm 189.571262 -0.000000 23.676233
RightHand -0.344127 0.000000 3.775583
RightHandThumb1 -24.326973 -0.000000 -32.862282
LeftUpLeg -7.117399 -6.327594 0.146579
LeftLeg 8.113761 -0.000000 -0.000000
LeftFoot -10.076792 -17.011843 -14.124862
LeftToeBase 16.196589 -0.000000 -0.000000
RightUpLeg -36.295487 4.718788 -9.901632
RightLeg 90.532205 -0.000000 -0.000000
RightFoot -12.925409 3.590064 5.532075
RightToeBase -1.266761 -0.000000 0.000000
1154
root 3.961433 37.058840 0.429062 4.519113 29.672503 -1.676371
Spine 1.431468 7.700362 0.368332
Head 6.478171 -3.662795 -1.307971
LeftShoulder -4.249870 -9.630753 5.956053
LeftArm 1.331323 -16.482902 -54.999735
LeftForeArm 9.404421 -0.000000 106.577305
LeftHand -15.576044 0.000000 35.615701
LeftHandThumb1 -26.253704 0.000000 33.147579
RightShoulder -4.532870 -20.160427 -0.042841
RightArm 14.518717 -18.953959 60.560277
RightForeArm 189.653659 -0.000000 23.707301
RightHand -0.273023 -0.000000 3.850005
RightHandThumb1 -24.326973 -0.000000 -32.862282
LeftUpLeg -7.022758 -6.214842 0.043158
LeftLeg 8.042438 -0.000000 -0.000000
LeftFoot -9.959354 -17.244614 -14.292337
LeftToeBase 16.382954 -0.000000 -0.000000
RightUpLeg -35.752494 4.437099 -9.740421
RightLeg 89.150471 -0.000000 -0.000000
RightFoot -13.555022 3.256751 5.412421
RightToeBase -1.774120 -0.000000 0.000000
1155
root 3.964816 37.054353 0.437480 4.487355 29.775686 -1.574203
Spine 1.592941 7.628795 0.286143
Head 6.103122 -3.693040 -1.366367
LeftShoulder -4.180363 -9.696458 6.011597
LeftArm 1.352731 -16.557501 -55.129965
LeftForeArm 9.422051 -0.000000 106.561248
LeftHand -15.583580 -0.000000 35.841393
LeftHandThumb1 -26.253704 0.000000 33.147579
RightShoulder -4.558817 -20.156824 -0.005843
RightArm 14.581640 -18.887806 60.544037
RightForeArm 189.710379 -0.000000 23.728979
RightHand -0.273826 -0.000000 3.989941
RightHandThumb1 -24.326973 -0.000000 -32.862282
LeftUpLeg -6.905151 -6.099115 -0.046644
LeftLeg 7.976220 -0.000000 -0.000000
LeftFoot -9.849088 -17.468676 -14.418543
LeftToeBase 16.559344 -0.000000 -0.000000
RightUpLeg -35.162256 4.156975 -9.568916
RightLeg 87.752034 -0.000000 -0.000000
RightFoot -14.182390 2.855296 5.344855
RightToeBase -1.838407 -0.000000 0.000000
